<svg width="20" height="20" viewBox="0 0 20 20" fill="none" xmlns="http://www.w3.org/2000/svg">
<circle cx="10" cy="10" r="10" fill="#213660"/>
    <path
        d="M10 10.3125C10.6904 10.3125 11.25 9.75286 11.25 9.0625C11.25 8.37214 10.6904 7.8125 10 7.8125C9.30964 7.8125 8.75 8.37214 8.75 9.0625C8.75 9.75286 9.30964 10.3125 10 10.3125Z"
        stroke="white" stroke-width="0.6" stroke-linecap="round" stroke-linejoin="round" />
    <path
        d="M13.125 9.0625C13.125 11.875 10 14.0625 10 14.0625C10 14.0625 6.875 11.875 6.875 9.0625C6.875 8.2337 7.20424 7.43884 7.79029 6.85279C8.37634 6.26674 9.1712 5.9375 10 5.9375C10.8288 5.9375 11.6237 6.26674 12.2097 6.85279C12.7958 7.43884 13.125 8.2337 13.125 9.0625V9.0625Z"
        stroke="white" stroke-width="0.6" stroke-linecap="round" stroke-linejoin="round" />
</svg>
