<svg width="20" height="20" viewBox="0 0 20 20" fill="none" xmlns="http://www.w3.org/2000/svg">
<circle cx="10" cy="10" r="10" fill="#A584FF"/>
    <path
        d="M12.5 12.1875H7.67558C7.60239 12.1875 7.53153 12.1618 7.47534 12.1149C7.41916 12.068 7.38121 12.0029 7.36812 11.9309L6.32506 6.1941C6.31197 6.12209 6.27402 6.05697 6.21784 6.01008C6.16165 5.96319 6.09079 5.9375 6.0176 5.9375H5.3125"
        stroke="white" stroke-width="0.6" stroke-linecap="round" stroke-linejoin="round" />
    <path
        d="M7.8125 13.75C8.24397 13.75 8.59375 13.4002 8.59375 12.9688C8.59375 12.5373 8.24397 12.1875 7.8125 12.1875C7.38103 12.1875 7.03125 12.5373 7.03125 12.9688C7.03125 13.4002 7.38103 13.75 7.8125 13.75Z"
        stroke="white" stroke-width="0.6" stroke-linecap="round" stroke-linejoin="round" />
    <path
        d="M12.5 13.75C12.9315 13.75 13.2812 13.4002 13.2812 12.9688C13.2812 12.5373 12.9315 12.1875 12.5 12.1875C12.0685 12.1875 11.7188 12.5373 11.7188 12.9688C11.7188 13.4002 12.0685 13.75 12.5 13.75Z"
        stroke="white" stroke-width="0.6" stroke-linecap="round" stroke-linejoin="round" />
    <path
        d="M6.5625 7.5H13.3756C13.4213 7.5 13.4665 7.51005 13.508 7.52945C13.5495 7.54885 13.5862 7.57712 13.6155 7.61227C13.6448 7.64741 13.6661 7.68856 13.6777 7.73282C13.6894 7.77708 13.6912 7.82337 13.683 7.8684L13.1717 10.6809C13.1586 10.7529 13.1206 10.818 13.0644 10.8649C13.0082 10.9118 12.9374 10.9375 12.8642 10.9375H7.1875"
        stroke="white" stroke-width="0.6" stroke-linecap="round" stroke-linejoin="round" />
</svg>
