<svg width="20" height="20" viewBox="0 0 20 20" fill="none" xmlns="http://www.w3.org/2000/svg">
<circle cx="10" cy="10" r="10" fill="#00CC6A"/>
<path d="M8.61235 9.8756C8.93651 10.5383 9.4737 11.0731 10.1379 11.3942C10.1865 11.4172 10.2402 11.4272 10.2938 11.4231C10.3475 11.4191 10.3991 11.4011 10.4437 11.3711L11.4216 10.7189C11.4649 10.6901 11.5147 10.6725 11.5664 10.6677C11.6182 10.663 11.6703 10.6712 11.7181 10.6917L13.5477 11.4758C13.6098 11.5022 13.6617 11.5481 13.6955 11.6065C13.7293 11.665 13.7432 11.7329 13.7351 11.7999C13.6773 12.2524 13.4565 12.6683 13.1141 12.9697C12.7717 13.2712 12.3312 13.4375 11.875 13.4375C10.466 13.4375 9.11478 12.8778 8.1185 11.8815C7.12221 10.8852 6.5625 9.53397 6.5625 8.12501C6.56252 7.66883 6.72883 7.22829 7.03027 6.8859C7.33171 6.5435 7.74762 6.32272 8.20012 6.26489C8.26715 6.25678 8.33501 6.27067 8.39347 6.30448C8.45192 6.33828 8.4978 6.39017 8.52421 6.45232L9.30899 8.28349C9.32929 8.33085 9.33756 8.3825 9.33307 8.43384C9.32858 8.48517 9.31146 8.5346 9.28324 8.57772L8.63338 9.57068C8.6038 9.61534 8.58632 9.66692 8.58263 9.72037C8.57895 9.77381 8.58919 9.8273 8.61235 9.8756V9.8756Z" stroke="white" stroke-width="0.6" stroke-linecap="round" stroke-linejoin="round"/>
</svg>
