<svg width="14" height="14" viewBox="0 0 14 14" fill="none" xmlns="http://www.w3.org/2000/svg">
    <path d="M3.07357 5.68747C3.07284 5.1686 3.17482 4.65471 3.37363 4.17544C3.57243 3.69617 3.86413 3.26098 4.23191 2.89497C4.59969 2.52895 5.03627 2.23935 5.5165 2.04286C5.99672 1.84636 6.51109 1.74685 7.02995 1.75008C9.19501 1.76617 10.9268 3.56577 10.9268 5.7369V6.12497C10.9268 8.08363 11.3366 9.22022 11.6975 9.84143C11.7364 9.9078 11.7571 9.98326 11.7575 10.0602C11.7579 10.1371 11.738 10.2128 11.6998 10.2796C11.6617 10.3464 11.6066 10.4019 11.5401 10.4406C11.4736 10.4793 11.3981 10.4998 11.3212 10.5H2.67876C2.60182 10.4998 2.5263 10.4793 2.45981 10.4406C2.39332 10.4019 2.33821 10.3463 2.30005 10.2795C2.26189 10.2127 2.24201 10.137 2.24244 10.0601C2.24286 9.98317 2.26357 9.90771 2.30247 9.84133C2.66359 9.2201 3.07356 8.08353 3.07356 6.12497L3.07357 5.68747Z" stroke="white" stroke-width="0.8" stroke-linecap="round" stroke-linejoin="round"/>
    <path d="M5.25 10.5V10.9375C5.25 11.4016 5.43437 11.8467 5.76256 12.1749C6.09075 12.5031 6.53587 12.6875 7 12.6875C7.46413 12.6875 7.90925 12.5031 8.23744 12.1749C8.56563 11.8467 8.75 11.4016 8.75 10.9375V10.5" stroke="white" stroke-width="0.8" stroke-linecap="round" stroke-linejoin="round"/>
</svg>
